HIERARCHY
ROOT Hips
{
	OFFSET 0.00000 0.00000 0.00000
	CHANNELS 6 Xposition Yposition Zposition Zrotation Yrotation Xrotation 
	JOINT LHipJoint
	{
		OFFSET 0 0 0
		CHANNELS 3 Zrotation Yrotation Xrotation
		JOINT LeftUpLeg
		{
			OFFSET 1.49846 -1.74315 1.08250
			CHANNELS 3 Zrotation Yrotation Xrotation
			JOINT LeftLeg
			{
				OFFSET 2.40966 -6.62050 0.00000
				CHANNELS 3 Zrotation Yrotation Xrotation
				JOINT LeftFoot
				{
					OFFSET 2.68066 -7.36505 0.00000
					CHANNELS 3 Zrotation Yrotation Xrotation
					JOINT LeftToeBase
					{
						OFFSET 0.14291 -0.39265 2.35870
						CHANNELS 3 Zrotation Yrotation Xrotation
						End Site
						{
							OFFSET 0.00000 -0.00000 1.20470
						}
					}
				}
			}
		}
	}
	JOINT RHipJoint
	{
		OFFSET 0 0 0
		CHANNELS 3 Zrotation Yrotation Xrotation
		JOINT RightUpLeg
		{
			OFFSET -1.46318 -1.74316 1.08250
			CHANNELS 3 Zrotation Yrotation Xrotation
			JOINT RightLeg
			{
				OFFSET -2.39759 -6.58734 0.00000
				CHANNELS 3 Zrotation Yrotation Xrotation
				JOINT RightFoot
				{
					OFFSET -2.63570 -7.24154 0.00000
					CHANNELS 3 Zrotation Yrotation Xrotation
					JOINT RightToeBase
					{
						OFFSET -0.17578 -0.48294 2.47180
						CHANNELS 3 Zrotation Yrotation Xrotation
						End Site
						{
							OFFSET -0.00000 -0.00000 1.26600
						}
					}
				}
			}
		}
	}
	JOINT LowerBack
	{
		OFFSET 0 0 0
		CHANNELS 3 Zrotation Yrotation Xrotation
		JOINT Spine
		{
			OFFSET 0.00843 2.19877 -0.20423
			CHANNELS 3 Zrotation Yrotation Xrotation
			JOINT Spine1
			{
				OFFSET -0.03080 2.21436 -0.05138
				CHANNELS 3 Zrotation Yrotation Xrotation
				JOINT Neck
				{
					OFFSET 0 0 0
					CHANNELS 3 Zrotation Yrotation Xrotation
					JOINT Neck1
					{
						OFFSET -0.04063 1.58841 0.30440
						CHANNELS 3 Zrotation Yrotation Xrotation
						JOINT Head
						{
							OFFSET 0.09277 1.59484 -0.39337
							CHANNELS 3 Zrotation Yrotation Xrotation
							End Site
							{
								OFFSET 0.03488 1.66530 -0.17040
							}
						}
					}
				}
				JOINT LeftShoulder
				{
					OFFSET 0 0 0
					CHANNELS 3 Zrotation Yrotation Xrotation
					JOINT LeftArm
					{
						OFFSET 3.03849 1.31522 0.02556
						CHANNELS 3 Zrotation Yrotation Xrotation
						JOINT LeftForeArm
						{
							OFFSET 5.25537 -0.00000 0.00000
							CHANNELS 3 Zrotation Yrotation Xrotation
							JOINT LeftHand
							{
								OFFSET 3.38855 -0.00000 -0.00000
								CHANNELS 3 Zrotation Yrotation Xrotation
								JOINT LeftFingerBase
								{
									OFFSET 0 0 0
									CHANNELS 3 Zrotation Yrotation Xrotation
									JOINT LeftHandIndex1
									{
										OFFSET 0.61452 -0.00000 0.00000
										CHANNELS 3 Zrotation Yrotation Xrotation
										End Site
										{
											OFFSET 0.49544 -0.00000 0.00000
										}
									}
								}
								JOINT LThumb
								{
									OFFSET 0 0 0
									CHANNELS 3 Zrotation Yrotation Xrotation
									End Site
									{
										OFFSET 0.50300 -0.00000 0.50300
									}
								}
							}
						}
					}
				}
				JOINT RightShoulder
				{
					OFFSET 0 0 0
					CHANNELS 3 Zrotation Yrotation Xrotation
					JOINT RightArm
					{
						OFFSET -3.06926 1.12091 -0.13185
						CHANNELS 3 Zrotation Yrotation Xrotation
						JOINT RightForeArm
						{
							OFFSET -5.38183 -0.00000 0.00000
							CHANNELS 3 Zrotation Yrotation Xrotation
							JOINT RightHand
							{
								OFFSET -3.16988 -0.00000 0.00000
								CHANNELS 3 Zrotation Yrotation Xrotation
								JOINT RightFingerBase
								{
									OFFSET 0 0 0
									CHANNELS 3 Zrotation Yrotation Xrotation
									JOINT RightHandIndex1
									{
										OFFSET -0.63768 -0.00000 0.00000
										CHANNELS 3 Zrotation Yrotation Xrotation
										End Site
										{
											OFFSET -0.51411 -0.00000 0.00000
										}
									}
								}
								JOINT RThumb
								{
									OFFSET 0 0 0
									CHANNELS 3 Zrotation Yrotation Xrotation
									End Site
									{
										OFFSET -0.52196 -0.00000 0.52196
									}
								}
							}
						}
					}
				}
			}
		}
	}
}
MOTION
Frames: 15
Frame Time: .0083333
8.0748 15.5866 30.2026 178.3460 -8.1271 -177.5090 0.0000 0.0000 0.0000 -8.3964 -6.6819 -31.1765 7.3831 15.6462 50.3088 1.0134 0.4370 -19.1921 0.4922 -4.4984 -12.4832 0.0000 0.0000 0.0000 4.2379 -5.1964 -30.1161 -7.1779 -15.4798 49.5438 -0.7645 -9.4870 -22.5551 -0.3321 3.7038 -10.2448 0.5159 -0.5577 11.3790 -1.4555 -1.1317 4.1425 -1.6475 -0.7251 -2.0936 -5.6925 -2.2356 -28.7878 8.9122 -2.9450 15.5841 3.6266 -0.6647 9.8543 -0.0000 0.0000 0.0000 -18.9720 -51.2250 -15.4461 63.5659 -57.1876 -37.3235 -0.0000 -0.0000 8.0722 -42.3538 7.9698 -7.2040 -7.1250 0.0000 -0.0000 -47.3966 30.3691 26.4989 -0.0000 0.0000 0.0000 21.4554 55.7322 -22.1257 -55.3907 54.9511 -30.5356 0.0000 0.0000 8.9255 42.2334 -4.3097 -3.9027 7.1250 -0.0000 -0.0000 45.4739 -26.8473 30.8610
8.0743 15.5830 30.1997 178.3420 -8.1272 -177.5050 0.0000 0.0000 0.0000 -8.3942 -6.6863 -31.2028 7.3993 15.6591 50.3689 1.0163 0.4297 -19.2160 0.4920 -4.4975 -12.4807 0.0000 0.0000 0.0000 4.2247 -5.1965 -30.1406 -7.1935 -15.4927 49.6023 -0.7665 -9.4862 -22.5728 -0.3341 3.7144 -10.2745 0.5146 -0.5565 11.3720 -1.4600 -1.1296 4.1354 -1.6517 -0.7237 -2.0972 -5.6753 -2.2152 -28.8696 8.8960 -2.9162 15.5614 3.6228 -0.6512 9.8566 -0.0000 0.0000 0.0000 -19.0949 -51.2253 -15.4442 63.7836 -57.2366 -37.5065 -0.0000 -0.0000 8.0363 -42.4200 7.9979 -7.2456 -7.1250 0.0000 -0.0000 -47.4221 30.3674 26.5374 -0.0000 0.0000 0.0000 21.6307 55.7480 -22.1500 -55.5269 54.9951 -30.6471 0.0000 0.0000 9.0348 42.2840 -4.2965 -3.8976 7.1250 -0.0000 -0.0000 45.4746 -26.8090 30.9381
8.0738 15.5797 30.1968 178.3370 -8.1285 -177.5020 0.0000 0.0000 0.0000 -8.3939 -6.6930 -31.2251 7.4150 15.6717 50.4271 1.0190 0.4237 -19.2399 0.4913 -4.4941 -12.4711 0.0000 0.0000 0.0000 4.2108 -5.1946 -30.1598 -7.2080 -15.5046 49.6568 -0.7681 -9.4908 -22.5910 -0.3361 3.7256 -10.3060 0.5129 -0.5574 11.3677 -1.4647 -1.1304 4.1293 -1.6555 -0.7238 -2.1013 -5.6611 -2.1957 -28.9541 8.8836 -2.8886 15.5433 3.6209 -0.6378 9.8612 0.0000 0.0000 0.0000 -19.2224 -51.2183 -15.4351 64.0019 -57.2853 -37.6902 -0.0000 -0.0000 7.9912 -42.4810 8.0288 -7.2885 -7.1250 0.0000 -0.0000 -47.4481 30.3706 26.5666 0.0000 0.0000 0.0000 21.8147 55.7697 -22.1686 -55.6531 55.0357 -30.7505 0.0000 0.0000 9.1410 42.3328 -4.2782 -3.8877 7.1250 -0.0000 -0.0000 45.4724 -26.7665 31.0192
8.0732 15.5774 30.1938 178.3350 -8.1311 -177.4990 0.0000 0.0000 0.0000 -8.3918 -6.7011 -31.2414 7.4293 15.6830 50.4798 1.0220 0.4148 -19.2639 0.4889 -4.4833 -12.4404 0.0000 0.0000 0.0000 4.2017 -5.1897 -30.1717 -7.2207 -15.5149 49.7041 -0.7690 -9.5032 -22.6101 -0.3382 3.7373 -10.3387 0.5134 -0.5591 11.3653 -1.4682 -1.1321 4.1233 -1.6592 -0.7244 -2.1064 -5.6496 -2.1786 -29.0360 8.8745 -2.8644 15.5284 3.6201 -0.6258 9.8669 0.0000 0.0000 0.0000 -19.3535 -51.2086 -15.4183 64.2191 -57.3332 -37.8729 -0.0000 -0.0000 7.9449 -42.5374 8.0588 -7.3296 -7.1250 0.0000 -0.0000 -47.4730 30.3750 26.5916 0.0000 0.0000 0.0000 22.0042 55.7923 -22.1818 -55.7703 55.0732 -30.8466 0.0000 0.0000 9.2338 42.3815 -4.2631 -3.8807 7.1250 -0.0000 -0.0000 45.4718 -26.7272 31.0965
8.0725 15.5746 30.1907 178.3360 -8.1348 -177.5000 0.0000 0.0000 0.0000 -8.3866 -6.7096 -31.2559 7.4435 15.6943 50.5325 1.0249 0.4054 -19.2885 0.4862 -4.4712 -12.4064 0.0000 0.0000 0.0000 4.1952 -5.1834 -30.1795 -7.2327 -15.5247 49.7489 -0.7699 -9.5169 -22.6297 -0.3400 3.7471 -10.3662 0.5183 -0.5612 11.3627 -1.4710 -1.1339 4.1192 -1.6647 -0.7251 -2.1093 -5.6386 -2.1636 -29.1164 8.8660 -2.8432 15.5154 3.6191 -0.6152 9.8733 0.0000 -0.0000 0.0000 -19.4831 -51.1983 -15.3947 64.4306 -57.3794 -38.0511 -0.0000 -0.0000 7.9029 -42.5868 8.0777 -7.3591 -7.1250 0.0000 -0.0000 -47.4904 30.3715 26.6235 0.0000 -0.0000 0.0000 22.1925 55.8113 -22.1907 -55.8766 55.1071 -30.9337 0.0000 0.0000 9.3033 42.4329 -4.2517 -3.8773 7.1250 -0.0000 -0.0000 45.4732 -26.6899 31.1731
8.0717 15.5720 30.1874 178.3390 -8.1424 -177.5000 0.0000 0.0000 0.0000 -8.3802 -6.7212 -31.2676 7.4569 15.7048 50.5818 1.0279 0.3963 -19.3124 0.4839 -4.4605 -12.3759 0.0000 0.0000 0.0000 4.1910 -5.1771 -30.1827 -7.2435 -15.5335 49.7893 -0.7706 -9.5321 -22.6497 -0.3409 3.7520 -10.3801 0.5255 -0.5645 11.3593 -1.4728 -1.1371 4.1163 -1.6702 -0.7265 -2.1108 -5.6271 -2.1501 -29.1957 8.8567 -2.8243 15.5059 3.6175 -0.6057 9.8810 -0.0000 -0.0000 0.0000 -19.6068 -51.1891 -15.3690 64.6315 -57.4228 -38.2203 -0.0000 -0.0000 7.8700 -42.6379 8.0863 -7.3798 -7.1250 0.0000 -0.0000 -47.5022 30.3572 26.6708 -0.0000 -0.0000 0.0000 22.3755 55.8254 -22.1943 -55.9705 55.1369 -31.0108 0.0000 0.0000 9.3437 42.4869 -4.2415 -3.8753 7.1250 -0.0000 -0.0000 45.4754 -26.6524 31.2515
8.0708 15.5696 30.1840 178.3450 -8.1525 -177.5000 0.0000 0.0000 0.0000 -8.3726 -6.7339 -31.2787 7.4699 15.7151 50.6299 1.0307 0.3885 -19.3364 0.4820 -4.4519 -12.3515 0.0000 0.0000 0.0000 4.1892 -5.1720 -30.1836 -7.2536 -15.5418 49.8272 -0.7712 -9.5479 -22.6692 -0.3419 3.7571 -10.3943 0.5357 -0.5681 11.3532 -1.4738 -1.1402 4.1133 -1.6767 -0.7277 -2.1109 -5.6151 -2.1386 -29.2707 8.8461 -2.8082 15.4990 3.6149 -0.5977 9.8891 0.0000 0.0000 0.0000 -19.7249 -51.1818 -15.3368 64.8167 -57.4625 -38.3764 -0.0000 -0.0000 7.8456 -42.6968 8.0847 -7.3935 -7.1250 0.0000 -0.0000 -47.5090 30.3293 26.7405 0.0000 0.0000 0.0000 22.5506 55.8303 -22.1897 -56.0499 55.1620 -31.0760 0.0000 0.0000 9.3512 42.5418 -4.2344 -3.8763 7.1250 -0.0000 -0.0000 45.4791 -26.6174 31.3277
8.0698 15.5673 30.1805 178.3500 -8.1673 -177.4990 0.0000 0.0000 0.0000 -8.3650 -6.7500 -31.2891 7.4819 15.7247 50.6744 1.0334 0.3810 -19.3584 0.4805 -4.4454 -12.3332 0.0000 0.0000 0.0000 4.1879 -5.1702 -30.1825 -7.2627 -15.5491 49.8609 -0.7721 -9.5622 -22.6897 -0.3420 3.7579 -10.3964 0.5477 -0.5725 11.3448 -1.4747 -1.1442 4.1106 -1.6839 -0.7294 -2.1094 -5.6040 -2.1290 -29.3424 8.8369 -2.7950 15.4946 3.6124 -0.5909 9.8978 0.0000 0.0000 0.0000 -19.8319 -51.1768 -15.3007 64.9823 -57.4977 -38.5160 -0.0000 -0.0000 7.8285 -42.7709 8.0752 -7.4039 -7.1250 0.0000 -0.0000 -47.5133 30.2867 26.8384 0.0000 0.0000 0.0000 22.7136 55.8293 -22.1829 -56.1148 55.1825 -31.1292 0.0000 0.0000 9.3266 42.5992 -4.2344 -3.8841 7.1250 -0.0000 -0.0000 45.4864 -26.5878 31.3990
8.0689 15.5653 30.1769 178.3610 -8.1843 -177.4960 0.0000 0.0000 0.0000 -8.3522 -6.7660 -31.3020 7.4932 15.7335 50.7160 1.0357 0.3742 -19.3774 0.4801 -4.4436 -12.3281 0.0000 0.0000 0.0000 4.1926 -5.1683 -30.1811 -7.2707 -15.5556 49.8907 -0.7726 -9.5801 -22.7093 -0.3427 3.7619 -10.4078 0.5634 -0.5777 11.3354 -1.4739 -1.1486 4.1078 -1.6915 -0.7312 -2.1077 -5.5904 -2.1197 -29.4123 8.8242 -2.7826 15.4921 3.6082 -0.5847 9.9068 0.0000 0.0000 0.0000 -19.9264 -51.1718 -15.2625 65.1256 -57.5279 -38.6369 -0.0000 -0.0000 7.8141 -42.8583 8.0681 -7.4199 -7.1250 0.0000 -0.0000 -47.5203 30.2403 26.9488 0.0000 0.0000 0.0000 22.8638 55.8245 -22.1724 -56.1633 55.1977 -31.1690 0.0000 0.0000 9.2755 42.6578 -4.2349 -3.8925 7.1250 -0.0000 -0.0000 45.4939 -26.5580 31.4713
8.0679 15.5635 30.1734 178.3710 -8.2027 -177.4920 0.0000 0.0000 0.0000 -8.3396 -6.7815 -31.3152 7.5036 15.7417 50.7542 1.0380 0.3647 -19.3950 0.4795 -4.4406 -12.3197 0.0000 0.0000 0.0000 4.1981 -5.1673 -30.1793 -7.2777 -15.5614 49.9170 -0.7728 -9.6004 -22.7290 -0.3438 3.7677 -10.4242 0.5774 -0.5827 11.3234 -1.4720 -1.1530 4.1066 -1.6969 -0.7331 -2.1026 -5.5782 -2.1137 -29.4848 8.8108 -2.7739 15.4931 3.6035 -0.5802 9.9178 0.0000 0.0000 0.0000 -20.0066 -51.1698 -15.2270 65.2452 -57.5529 -38.7378 -0.0000 -0.0000 7.8008 -42.9553 8.0641 -7.4412 -7.1250 0.0000 -0.0000 -47.5299 30.1921 27.0670 0.0000 0.0000 0.0000 22.9909 55.8174 -22.1684 -56.1967 55.2082 -31.1965 0.0000 0.0000 9.2027 42.7233 -4.2427 -3.9086 7.1250 -0.0000 -0.0000 45.5056 -26.5317 31.5438
8.0671 15.5620 30.1698 178.3820 -8.2226 -177.4880 0.0000 0.0000 0.0000 -8.3259 -6.7958 -31.3282 7.5131 15.7492 50.7892 1.0403 0.3518 -19.4117 0.4787 -4.4371 -12.3097 0.0000 0.0000 0.0000 4.2053 -5.1669 -30.1760 -7.2840 -15.5664 49.9404 -0.7729 -9.6218 -22.7486 -0.3448 3.7730 -10.4390 0.5890 -0.5880 11.3112 -1.4683 -1.1582 4.1065 -1.6992 -0.7354 -2.0964 -5.5677 -2.1099 -29.5581 8.7966 -2.7673 15.4961 3.5984 -0.5770 9.9299 -0.0000 -0.0000 0.0000 -20.0740 -51.1688 -15.1931 65.3370 -57.5720 -38.8153 -0.0000 -0.0000 7.7826 -43.0500 8.0618 -7.4635 -7.1250 0.0000 -0.0000 -47.5398 30.1463 27.1808 -0.0000 -0.0000 0.0000 23.0982 55.8095 -22.1669 -56.2136 55.2135 -31.2104 0.0000 0.0000 9.1224 42.7910 -4.2542 -3.9284 7.1250 -0.0000 -0.0000 45.5192 -26.5078 31.6150
8.0663 15.5607 30.1662 178.3920 -8.2424 -177.4810 0.0000 0.0000 0.0000 -8.3139 -6.8096 -31.3413 7.5217 15.7559 50.8209 1.0426 0.3360 -19.4276 0.4773 -4.4305 -12.2909 0.0000 0.0000 0.0000 4.2114 -5.1675 -30.1735 -7.2896 -15.5710 49.9612 -0.7730 -9.6418 -22.7673 -0.3457 3.7778 -10.4523 0.5964 -0.5931 11.2992 -1.4637 -1.1634 4.1057 -1.6980 -0.7377 -2.0909 -5.5604 -2.1092 -29.6296 8.7832 -2.7640 15.5008 3.5936 -0.5753 9.9426 -0.0000 -0.0000 0.0000 -20.1317 -51.1688 -15.1584 65.3994 -57.5850 -38.8680 -0.0000 -0.0000 7.7548 -43.1310 8.0662 -7.4885 -7.1250 0.0000 -0.0000 -47.5517 30.1131 27.2701 -0.0000 -0.0000 0.0000 23.1875 55.8009 -22.1659 -56.2165 55.2144 -31.2128 0.0000 0.0000 9.0470 42.8569 -4.2746 -3.9562 7.1250 -0.0000 -0.0000 45.5367 -26.4933 31.6739
8.0656 15.5597 30.1627 178.3990 -8.2612 -177.4750 0.0000 0.0000 0.0000 -8.3040 -6.8211 -31.3521 7.5293 15.7619 50.8491 1.0449 0.3182 -19.4424 0.4755 -4.4224 -12.2682 0.0000 0.0000 0.0000 4.2163 -5.1686 -30.1694 -7.2945 -15.5749 49.9794 -0.7736 -9.6583 -22.7871 -0.3462 3.7807 -10.4604 0.5997 -0.5979 11.2886 -1.4582 -1.1688 4.1052 -1.6937 -0.7401 -2.0858 -5.5552 -2.1104 -29.7025 8.7707 -2.7627 15.5096 3.5894 -0.5745 9.9572 0.0000 0.0000 0.0000 -20.1779 -51.1683 -15.1241 65.4334 -57.5920 -38.8967 -0.0000 -0.0000 7.7136 -43.1874 8.0676 -7.5044 -7.1250 0.0000 -0.0000 -47.5588 30.0882 27.3347 0.0000 0.0000 0.0000 23.2596 55.7915 -22.1649 -56.2049 55.2108 -31.2032 0.0000 0.0000 8.9918 42.9133 -4.2969 -3.9846 7.1250 -0.0000 -0.0000 45.5538 -26.4857 31.7187
8.0649 15.5588 30.1591 178.4060 -8.2779 -177.4700 0.0000 0.0000 0.0000 -8.2955 -6.8302 -31.3588 7.5359 15.7670 50.8732 1.0470 0.2998 -19.4559 0.4732 -4.4116 -12.2376 0.0000 0.0000 0.0000 4.2207 -5.1696 -30.1624 -7.2986 -15.5783 49.9949 -0.7743 -9.6730 -22.8065 -0.3464 3.7818 -10.4637 0.6001 -0.6019 11.2801 -1.4528 -1.1732 4.1032 -1.6878 -0.7420 -2.0832 -5.5527 -2.1129 -29.7667 8.7611 -2.7631 15.5195 3.5862 -0.5744 9.9710 -0.0000 -0.0000 0.0000 -20.2170 -51.1671 -15.0842 65.4403 -57.5935 -38.9025 -0.0000 -0.0000 7.6587 -43.2169 8.0670 -7.5115 -7.1250 0.0000 -0.0000 -47.5617 30.0738 27.3703 -0.0000 -0.0000 0.0000 23.3214 55.7810 -22.1608 -56.1783 55.2024 -31.1814 0.0000 0.0000 8.9664 42.9571 -4.3206 -4.0126 7.1250 -0.0000 -0.0000 45.5701 -26.4860 31.7461
8.0643 15.5582 30.1555 178.4110 -8.2926 -177.4660 0.0000 0.0000 0.0000 -8.2896 -6.8370 -31.3612 7.5412 15.7712 50.8929 1.0489 0.2824 -19.4670 0.4707 -4.4001 -12.2052 0.0000 0.0000 0.0000 4.2239 -5.1707 -30.1523 -7.3018 -15.5809 50.0068 -0.7752 -9.6857 -22.8257 -0.3461 3.7801 -10.4589 0.5974 -0.6049 11.2740 -1.4482 -1.1767 4.0995 -1.6811 -0.7435 -2.0838 -5.5477 -2.1146 -29.8228 8.7486 -2.7631 15.5307 3.5816 -0.5744 9.9838 0.0000 -0.0000 0.0000 -20.2475 -51.1656 -15.0411 65.4217 -57.5896 -38.8868 -0.0000 -0.0000 7.5925 -43.2242 8.0609 -7.5079 -7.1250 0.0000 -0.0000 -47.5590 30.0643 27.3871 0.0000 -0.0000 0.0000 23.3749 55.7698 -22.1530 -56.1381 55.1898 -31.1483 0.0000 0.0000 8.9748 42.9821 -4.3413 -4.0353 7.1250 -0.0000 -0.0000 45.5828 -26.4934 31.7532
